<svg width="14" height="14" viewBox="0 0 14 14" fill="none" xmlns="http://www.w3.org/2000/svg">
<path d="M7.66536 5.00065H6.33203V3.66732H7.66536V5.00065ZM7.66536 10.334H6.33203V6.33398H7.66536V10.334ZM6.9987 0.333984C6.12322 0.333984 5.25631 0.506423 4.44747 0.841454C3.63864 1.17649 2.90371 1.66755 2.28465 2.28661C1.03441 3.53685 0.332031 5.23254 0.332031 7.00065C0.332031 8.76876 1.03441 10.4645 2.28465 11.7147C2.90371 12.3338 3.63864 12.8248 4.44747 13.1598C5.25631 13.4949 6.12322 13.6673 6.9987 13.6673C8.76681 13.6673 10.4625 12.9649 11.7127 11.7147C12.963 10.4645 13.6654 8.76876 13.6654 7.00065C13.6654 6.12517 13.4929 5.25827 13.1579 4.44943C12.8229 3.64059 12.3318 2.90566 11.7127 2.28661C11.0937 1.66755 10.3588 1.17649 9.54992 0.841454C8.74108 0.506423 7.87418 0.333984 6.9987 0.333984Z" fill="#E54848"/>
</svg>
